<?xml version="1.0" encoding="utf-8"?>
<!DOCTYPE svg PUBLIC "-//W3C//DTD SVG 1.1//EN" "http://www.w3.org/Graphics/SVG/1.1/DTD/svg11.dtd">
<svg version="1.1" id="VARG" xmlns="http://www.w3.org/2000/svg" xmlns:xlink="http://www.w3.org/1999/xlink" x="0px" y="0px"
 width="65.04px" height="54.72px" viewBox="0 0 65.04 54.72" enable-background="new 0 0 65.04 54.72" xml:space="preserve">
<rect width="65.04" height="54.72"/>
<rect x="2.88" y="2.88" fill="#FFFFFF" width="59.28" height="48.96"/>
<path d="M45.84,45.36h9.12c2.62,0.07,2.432-4.43,0.24-4.56c-1.311-0.076-3.245-1.745-4.32-3.36l-6.72-8.16
c6.482-2.537,6.42-5.1,6.48-11.04c-0.06-6.06-3.06-9.06-6.96-9.12H12.96c-3.505,0.06-4.192,4.31-0.24,4.8
c4.047,0.51,4.985,2.885,5.04,5.28v18c-0.055,2.355-0.993,3.23-4.08,3.6c-3.163,0.38-2.538,4.63-0.24,4.56h19.92
c2.282,0.07,2.907-4.18-0.24-4.56c-3.103-0.37-4.04-1.245-4.08-3.6v-6.48h2.88l10.32,12.96C42.83,44.68,43.955,45.43,45.84,45.36z"
/>
<path fill="#FFFFFF" d="M29.04,13.92v10.8h6.48c3.185-0.04,4.06-3.915,4.08-5.52c-0.02-1.645-0.395-5.395-4.32-5.28H29.04z"/>
</svg>
